<?xml version="1.0" encoding="utf-8" ?><svg xmlns="http://www.w3.org/2000/svg" xmlns:xlink="http://www.w3.org/1999/xlink" width="1024" height="1024" viewBox="0 0 1024 1024"><path fill="#F77A20" d="M0 0L1024 0L1024 1024L0 1024L0 0Z"/><path fill="#DDB78B" d="M450.816 159.307C483.962 154.417 517.677 152.572 551.053 156.446C554.893 156.539 564.746 157.632 568.377 158.725C597.856 163.593 619.692 169.465 647.824 180.332C652.235 181.393 658.014 184.454 662.053 186.551C693.133 201.129 722.074 219.888 748.073 242.306C752.093 245.346 755.735 248.851 759.218 252.484C788.452 281.19 815.399 316.223 832.861 353.41C834.919 356.741 837.282 362.274 838.737 365.976C854.291 401.248 864.066 438.794 867.686 477.173C869.083 482.139 869.982 513.613 869.151 519.004C867.649 562.556 861.169 599.602 845.898 640.648C844.331 644.812 841.999 651.142 839.921 654.91C825.091 689.754 806.142 718.354 782.102 747.323C779.298 750.985 775.655 755.238 772.336 758.425C750.244 780.619 729.652 798.579 702.695 815.138C692.409 821.456 682.698 826.382 672.621 832.291C669.02 834.285 661.67 838.072 657.764 839.36C632.315 850.264 613.53 856.193 586.368 862.04C582.102 863.242 576.402 864.262 571.998 864.866C532.071 870.564 508.492 871.699 468.008 867.152C462.925 866.825 454.981 865.391 450.072 864.322C420.336 858.889 398.622 852.678 370.516 840.949C366.581 839.82 359.455 836.555 356.009 834.404C328.368 820.884 302.512 803.984 279.034 784.094C275.856 781.794 271.161 777.399 268.406 774.665C235.332 743.766 213.51 712.963 192.505 673.11C190.092 668.918 188.108 664.366 186.083 659.963C182.289 650.111 178.445 641.615 174.798 631.356C165.148 604.227 158.819 576.03 155.951 547.379C153.916 540.058 153.846 505.179 154.929 497.272C155.225 459.305 166.262 415.682 179.115 380.174C180.841 375.11 182.937 369.824 185.474 365.111C199.977 331.978 220.902 301.519 244.161 273.995C246.206 271.073 251.297 265.944 253.959 263.242C285.133 231.552 314.107 210.859 353.591 190.674C355.842 188.693 364.52 185.219 367.411 184.099C390.63 174.064 411.623 167.707 436.095 162.108C441.081 160.804 445.754 160.07 450.816 159.307Z"/><path fill="#DDB78B" d="M450.816 159.307C483.962 154.417 517.677 152.572 551.053 156.446C554.893 156.539 564.746 157.632 568.377 158.725C597.856 163.593 619.692 169.465 647.824 180.332C652.235 181.393 658.014 184.454 662.053 186.551C693.133 201.129 722.074 219.888 748.073 242.306C752.093 245.346 755.735 248.851 759.218 252.484C788.452 281.19 815.399 316.223 832.861 353.41C834.919 356.741 837.282 362.274 838.737 365.976C854.291 401.248 864.066 438.794 867.686 477.173C869.083 482.139 869.982 513.613 869.151 519.004C867.649 562.556 861.169 599.602 845.898 640.648C844.331 644.812 841.999 651.142 839.921 654.91C825.091 689.754 806.142 718.354 782.102 747.323L746.698 711.911C742.457 707.702 729.939 695.747 727.16 691.822C731.66 682.954 731.236 676.675 726.683 668.048C721.181 663.233 722.782 662.982 715.157 659.297C709.966 657.826 704.358 657.592 699.336 659.841C694.097 662.717 692.146 663.951 688.679 669.168C682.153 663.361 673.625 654.494 667.324 648.176C653.166 633.775 638.857 619.523 624.399 605.422C627.508 601.69 630.429 597.804 633.152 593.781C639.879 583.838 645.357 573.105 649.461 561.823C651.2 557.043 652.689 552.175 653.921 547.239C656.198 538.113 657.59 528.787 658.077 519.393C658.326 514.592 658.338 509.782 658.113 504.98C655.926 458.329 631.59 415.527 592.618 389.791C553.645 364.055 504.725 358.481 460.962 374.79C456.328 376.517 451.784 378.478 447.348 380.666C430.297 389.074 415.05 400.727 402.459 414.971C385.389 398.927 369.44 381.206 352.445 365.01C347.446 360.246 341.706 354.716 337.326 349.464C335.191 354.147 331.507 357.951 326.896 360.236C321.818 362.752 315.975 363.249 310.545 361.626C305.471 360.109 301.098 356.842 298.205 352.406C293.521 345.222 293.352 335.994 297.77 328.644C289.393 319.435 280.223 310.502 271.452 301.627C262.55 292.619 253.522 282.438 244.161 273.995C246.206 271.073 251.297 265.944 253.959 263.242C285.133 231.552 314.107 210.859 353.591 190.674C355.842 188.693 364.52 185.219 367.411 184.099C390.63 174.064 411.623 167.707 436.095 162.108C441.081 160.804 445.754 160.07 450.816 159.307Z"/><path fill="#F5F5D4" d="M783.427 504.981C786.506 495.725 795.174 489.487 804.928 489.508C814.683 489.528 823.325 495.802 826.364 505.071C827.89 509.723 827.865 514.745 826.291 519.382C840.578 519.337 854.865 519.211 869.151 519.004C867.649 562.556 861.169 599.602 845.898 640.648C844.331 644.812 841.999 651.142 839.921 654.91C825.091 689.754 806.142 718.354 782.102 747.323L746.698 711.911C742.457 707.702 729.939 695.747 727.16 691.822C731.66 682.954 731.236 676.675 726.683 668.048C721.181 663.233 722.782 662.982 715.157 659.297C709.966 657.826 704.358 657.592 699.336 659.841C694.097 662.717 692.146 663.951 688.679 669.168C682.153 663.361 673.625 654.494 667.324 648.176C653.166 633.775 638.857 619.523 624.399 605.422C627.508 601.69 630.429 597.804 633.152 593.781C639.879 583.838 645.357 573.105 649.461 561.823C651.2 557.043 652.689 552.175 653.921 547.239C656.198 538.113 657.59 528.787 658.077 519.393L783.318 518.915C781.886 514.375 781.924 509.498 783.427 504.981Z"/><path fill="#F5F5D4" d="M797.186 612.477C802.448 608.324 803.615 606.639 806.685 600.85C817.291 613.509 834.322 627.924 845.898 640.648C844.331 644.812 841.999 651.142 839.921 654.91C825.091 689.754 806.142 718.354 782.102 747.323L746.698 711.911C742.457 707.702 729.939 695.747 727.16 691.822C731.66 682.954 731.236 676.675 726.683 668.048C727.693 666.172 740.496 653.731 742.844 651.349C754.821 639.327 766.642 627.15 778.303 614.821C785.491 616.566 790.691 615.939 797.186 612.477Z"/><path fill="#DDB78B" d="M797.186 612.477C802.448 608.324 803.615 606.639 806.685 600.85C817.291 613.509 834.322 627.924 845.898 640.648C844.331 644.812 841.999 651.142 839.921 654.91C833.663 648.036 825.395 640.515 818.828 633.851C811.933 626.854 804.435 619.01 797.186 612.477Z"/><path fill="#F5F5D4" d="M649.461 561.823C656.728 568.993 664.091 576.292 671.755 583.03C673.579 578.708 676.71 575.065 680.709 572.612C686.541 569.033 693.686 568.305 700.12 570.634C706.554 572.964 711.577 578.096 713.768 584.579C715.283 589.064 715.344 593.914 713.941 598.436C720.813 598.667 760.607 597.606 763.65 598.549C764.876 601.993 765.288 603.092 767.112 606.251C770.783 610.862 772.93 612.299 778.303 614.821C766.642 627.15 754.821 639.327 742.844 651.349C740.496 653.731 727.693 666.172 726.683 668.048C721.181 663.233 722.782 662.982 715.157 659.297C709.966 657.826 704.358 657.592 699.336 659.841C694.097 662.717 692.146 663.951 688.679 669.168C682.153 663.361 673.625 654.494 667.324 648.176C653.166 633.775 638.857 619.523 624.399 605.422C627.508 601.69 630.429 597.804 633.152 593.781C639.879 583.838 645.357 573.105 649.461 561.823Z"/><path fill="#F77A20" d="M680.709 572.612C686.541 569.033 693.686 568.305 700.12 570.634C706.554 572.964 711.577 578.096 713.768 584.579C715.283 589.064 715.344 593.914 713.941 598.436C711.483 606.361 704.859 612.288 696.711 613.854C688.563 615.42 680.215 612.372 674.993 605.923C669.772 599.474 668.527 590.674 671.755 583.03C673.579 578.708 676.71 575.065 680.709 572.612Z"/><path fill="#F5F5D4" d="M690.411 579.197C697.361 578.115 703.867 582.883 704.929 589.835C705.991 596.787 701.206 603.28 694.25 604.323C687.323 605.362 680.86 600.599 679.802 593.674C678.744 586.749 683.489 580.274 690.411 579.197Z"/><path fill="#DDB78B" d="M633.152 593.781C646.208 608.137 662.78 622.764 676.416 637.111C679.725 640.592 696.617 657.877 699.336 659.841C694.097 662.717 692.146 663.951 688.679 669.168C682.153 663.361 673.625 654.494 667.324 648.176C653.166 633.775 638.857 619.523 624.399 605.422C627.508 601.69 630.429 597.804 633.152 593.781Z"/><path fill="#DDB78B" d="M767.112 606.251C770.783 610.862 772.93 612.299 778.303 614.821C766.642 627.15 754.821 639.327 742.844 651.349C740.496 653.731 727.693 666.172 726.683 668.048C721.181 663.233 722.782 662.982 715.157 659.297C717.935 657.343 727.618 646.648 730.59 643.677C742.693 631.577 754.727 617.961 767.112 606.251Z"/><path fill="#F77A20" d="M783.427 504.981C786.506 495.725 795.174 489.487 804.928 489.508C814.683 489.528 823.325 495.802 826.364 505.071C827.89 509.723 827.865 514.745 826.291 519.382C823.15 528.641 814.412 534.831 804.635 534.725C794.858 534.619 786.257 528.24 783.318 518.915C781.886 514.375 781.924 509.498 783.427 504.981Z"/><path fill="#F5F5D4" d="M801.981 499.774C808.81 498.164 815.649 502.403 817.244 509.236C818.84 516.068 814.586 522.898 807.751 524.48C800.935 526.057 794.129 521.818 792.538 515.006C790.947 508.193 795.172 501.379 801.981 499.774Z"/><path fill="#F77A20" d="M765.213 584.509C768.244 578.592 772.101 574.345 778.626 572.165C784.256 570.251 790.42 570.701 795.712 573.413C806.204 578.755 810.229 589.838 806.685 600.85C803.615 606.639 802.448 608.324 797.186 612.477C790.691 615.939 785.491 616.566 778.303 614.821C772.93 612.299 770.783 610.862 767.112 606.251C765.288 603.092 764.876 601.993 763.65 598.549C762.909 593.227 763.522 589.48 765.213 584.509Z"/><path fill="#F5F5D4" d="M781.891 581.336C786.31 580.011 791.1 581.177 794.414 584.386C797.728 587.595 799.049 592.345 797.867 596.804C796.685 601.263 793.185 604.735 788.716 605.88C781.998 607.603 775.135 603.635 773.277 596.952C771.419 590.27 775.248 583.329 781.891 581.336Z"/><path fill="#DDB78B" d="M713.768 584.579C730.115 585.115 748.72 584.603 765.213 584.509C763.522 589.48 762.909 593.227 763.65 598.549C760.607 597.606 720.813 598.667 713.941 598.436C715.344 593.914 715.283 589.064 713.768 584.579Z"/><path fill="#DDB78B" d="M653.921 547.239C657.761 551.315 677.019 570.27 680.709 572.612C676.71 575.065 673.579 578.708 671.755 583.03C664.091 576.292 656.728 568.993 649.461 561.823C651.2 557.043 652.689 552.175 653.921 547.239Z"/><path fill="#F5F5D4" d="M688.383 323.158C694.569 317.393 701.189 310.049 707.33 304.005C724.556 287.05 741.555 268.917 759.218 252.484C788.452 281.19 815.399 316.223 832.861 353.41C834.919 356.741 837.282 362.274 838.737 365.976C854.291 401.248 864.066 438.794 867.686 477.173C869.083 482.139 869.982 513.613 869.151 519.004C854.865 519.211 840.578 519.337 826.291 519.382C827.865 514.745 827.89 509.723 826.364 505.071C823.325 495.802 814.683 489.528 804.928 489.508C795.174 489.487 786.506 495.725 783.427 504.981C774.862 505.416 765.538 505.135 756.899 505.119C745.291 505.203 733.683 505.203 722.076 505.117L722.019 475.926C722 469.765 722.157 461.929 721.501 455.925C717.169 457.502 712.451 457.679 708.012 456.432C701.431 454.583 696.081 449.782 693.532 443.438C691.757 439.018 691.461 434.142 692.691 429.541C694.695 422.042 700.498 416.151 707.967 414.035L708.01 374.026C694.447 370.151 688.479 359.565 691.242 345.894C694.228 339.7 694.596 339.032 699.528 334.301C695.767 330.633 692.052 326.919 688.383 323.158Z"/><path fill="#DDB78B" d="M832.861 353.41C834.919 356.741 837.282 362.274 838.737 365.976C854.291 401.248 864.066 438.794 867.686 477.173C869.083 482.139 869.982 513.613 869.151 519.004C854.865 519.211 840.578 519.337 826.291 519.382C827.865 514.745 827.89 509.723 826.364 505.071C823.325 495.802 814.683 489.528 804.928 489.508C795.174 489.487 786.506 495.725 783.427 504.981C774.862 505.416 765.538 505.135 756.899 505.119C745.291 505.203 733.683 505.203 722.076 505.117L722.019 475.926C722 469.765 722.157 461.929 721.501 455.925C727.516 453.737 732.281 449.041 734.557 443.059C736.197 438.747 736.442 434.029 735.257 429.57C739.687 430.387 751.511 429.904 756.397 429.812C764.029 422.881 773.203 413.068 780.689 405.605L832.861 353.41Z"/><path fill="#F5F5D4" d="M734.557 443.059C749.14 443.187 763.724 443.217 778.308 443.147C801.982 443.163 819.784 440.826 837.974 459.243C848.928 470.334 852.194 481.369 858.895 494.857C860.655 498.3 866.014 502.051 868.739 505.459L844.387 505.173C838.915 505.163 831.643 505.402 826.364 505.071C823.325 495.802 814.683 489.528 804.928 489.508C795.174 489.487 786.506 495.725 783.427 504.981C774.862 505.416 765.538 505.135 756.899 505.119C745.291 505.203 733.683 505.203 722.076 505.117L722.019 475.926C722 469.765 722.157 461.929 721.501 455.925C727.516 453.737 732.281 449.041 734.557 443.059Z"/><path fill="#F5F5D4" d="M838.737 365.976C854.291 401.248 864.066 438.794 867.686 477.173L867.34 477.816C866.463 477.136 863.592 470.74 862.498 468.96C857.929 461.525 854.181 455.55 847.936 449.482C824.164 426.382 806.278 429.422 776.168 429.558C780.815 424.126 787.273 417.903 792.368 412.771L821.742 383.52C826.539 378.764 834.72 371.048 838.737 365.976Z"/><path fill="#F77A20" d="M699.528 334.301C710.293 326.789 724.213 329.461 731.198 340.645C734.373 345.618 735.374 351.673 733.968 357.403C732.317 364.045 728.227 368.437 722.493 371.855C716.464 374.24 714.71 374.252 708.01 374.026C694.447 370.151 688.479 359.565 691.242 345.894C694.228 339.7 694.596 339.032 699.528 334.301Z"/><path fill="#F5F5D4" d="M709.582 340.284C716.19 338.783 722.767 342.911 724.289 349.514C725.811 356.117 721.705 362.707 715.107 364.251C708.479 365.802 701.851 361.673 700.322 355.039C698.792 348.405 702.943 341.791 709.582 340.284Z"/><path fill="#F77A20" d="M707.967 414.035C712.573 412.73 717.479 412.962 721.943 414.695C728.502 417.242 733.45 422.769 735.257 429.57C736.442 434.029 736.197 438.747 734.557 443.059C732.281 449.041 727.516 453.737 721.501 455.925C717.169 457.502 712.451 457.679 708.012 456.432C701.431 454.583 696.081 449.782 693.532 443.438C691.757 439.018 691.461 434.142 692.691 429.541C694.695 422.042 700.498 416.151 707.967 414.035Z"/><path fill="#F5F5D4" d="M712.384 423.164C719.024 422.304 725.117 426.956 726.035 433.588C726.954 440.22 722.356 446.354 715.732 447.331C709.025 448.321 702.798 443.652 701.867 436.937C700.937 430.221 705.66 424.035 712.384 423.164Z"/><path fill="#DDB78B" d="M708.01 374.026C714.71 374.252 716.464 374.24 722.493 371.855C722.486 384.997 722.937 401.919 721.943 414.695C717.479 412.962 712.573 412.73 707.967 414.035L708.01 374.026Z"/><path fill="#F5F5D4" d="M450.816 159.307C483.962 154.417 517.677 152.572 551.053 156.446C554.893 156.539 564.746 157.632 568.377 158.725C597.856 163.593 619.692 169.465 647.824 180.332C643.713 185.097 613.621 216.669 609.749 218.735C613.144 220.515 615.272 221.731 618.071 224.424C618.617 224.95 620.837 227.424 621.14 227.648C626.23 237.139 625.81 244.692 619.843 253.659C615.16 258.605 613.055 259.729 606.644 262.229C609.925 263.451 662.881 317.095 669.111 323.544C662.913 330.113 655.361 337.04 648.837 343.487L616.933 375.291C590.561 356.26 566.534 346.974 534.676 341.78C505.836 281.364 479.135 219.898 450.816 159.307Z"/><path fill="#F5F5D4" d="M568.377 158.725C597.856 163.593 619.692 169.465 647.824 180.332C643.713 185.097 613.621 216.669 609.749 218.735C604.881 217.261 601.274 217.12 596.341 218.304C595.231 217.612 568.961 162.485 568.377 158.725Z"/><path fill="#F77A20" d="M596.341 218.304C601.274 217.12 604.881 217.261 609.749 218.735C613.144 220.515 615.272 221.731 618.071 224.424C618.617 224.95 620.837 227.424 621.14 227.648C626.23 237.139 625.81 244.692 619.843 253.659C615.16 258.605 613.055 259.729 606.644 262.229C599.755 263.32 595.592 262.279 589.602 259.039C585.482 255.583 583.765 253.802 581.107 249.172C577.899 241.618 579.647 234.287 583.386 227.432C588.181 222.223 589.915 221.19 596.341 218.304Z"/><path fill="#F5F5D4" d="M598.616 227.719C605.377 225.776 612.437 229.665 614.411 236.418C616.384 243.171 612.528 250.248 605.784 252.252C598.996 254.269 591.863 250.382 589.877 243.586C587.891 236.789 591.81 229.674 598.616 227.719Z"/><path fill="#F77A20" d="M573.302 276.033C588.01 303.487 551.668 322.27 536.709 301.416C524.166 283.93 540.46 260.351 562.884 267.354C567.97 270.455 569.409 271.551 573.302 276.033Z"/><path fill="#F5F5D4" d="M553.017 275.738C559.77 274.802 566.022 279.468 567.044 286.209C568.067 292.949 563.481 299.26 556.754 300.368C552.325 301.098 547.846 299.389 545.03 295.894C542.213 292.4 541.494 287.66 543.148 283.488C544.801 279.315 548.571 276.355 553.017 275.738Z"/><path fill="#DDB78B" d="M551.053 156.446C554.893 156.539 564.746 157.632 568.377 158.725C568.961 162.485 595.231 217.612 596.341 218.304C589.915 221.19 588.181 222.223 583.386 227.432C582.472 223.839 574.502 207.859 572.516 203.605L551.053 156.446Z"/><path fill="#DDB78B" d="M581.107 249.172C583.765 253.802 585.482 255.583 589.602 259.039C584.369 264.312 578.019 270.452 573.302 276.033C569.409 271.551 567.97 270.455 562.884 267.354C568.507 262.37 575.683 254.67 581.107 249.172Z"/><path fill="#F5F5D4" d="M353.591 190.674C355.842 188.693 364.52 185.219 367.411 184.099C369.378 188.878 382.68 220.917 385.034 222.122C385.131 222.171 385.242 222.187 385.347 222.219C407.316 220.369 418.962 242.895 405.095 259.408L418.937 287.609C420.247 290.347 426.561 304.776 428.365 305.757C435.237 305.003 440.355 305.266 446.203 309.79C450.948 313.457 454.043 318.858 454.806 324.806C455.519 330.836 453.782 336.9 449.984 341.638C448.871 343.053 447.788 344.143 446.496 345.38C451.286 354.772 456.744 365.182 460.962 374.79C456.328 376.517 451.784 378.478 447.348 380.666C430.297 389.074 415.05 400.727 402.459 414.971C385.389 398.927 369.44 381.206 352.445 365.01C347.446 360.246 341.706 354.716 337.326 349.464C335.191 354.147 331.507 357.951 326.896 360.236C321.818 362.752 315.975 363.249 310.545 361.626C305.471 360.109 301.098 356.842 298.205 352.406C293.521 345.222 293.352 335.994 297.77 328.644C289.393 319.435 280.223 310.502 271.452 301.627C262.55 292.619 253.522 282.438 244.161 273.995C246.206 271.073 251.297 265.944 253.959 263.242C285.133 231.552 314.107 210.859 353.591 190.674Z"/><path fill="#F77A20" d="M385.347 222.219C407.316 220.369 418.962 242.895 405.095 259.408C399.588 264.349 398.981 263.983 392.486 266.757C385.554 267.452 380.261 267.143 374.339 262.657C369.636 259.07 366.571 253.744 365.835 247.875C364.927 240.637 367.287 234.902 371.598 229.342C376.429 224.99 379.275 224.023 385.347 222.219Z"/><path fill="#F5F5D4" d="M384.601 232.319C391.416 230.374 398.522 234.308 400.491 241.117C402.46 247.925 398.552 255.045 391.751 257.039C384.914 259.043 377.751 255.11 375.771 248.267C373.792 241.423 377.75 234.274 384.601 232.319Z"/><path fill="#F77A20" d="M309.185 319.184C317.665 316.045 327.2 318.315 333.355 324.938C339.51 331.562 341.076 341.237 337.326 349.464C335.191 354.147 331.507 357.951 326.896 360.236C321.818 362.752 315.975 363.249 310.545 361.626C305.471 360.109 301.098 356.842 298.205 352.406C293.521 345.222 293.352 335.994 297.77 328.644C300.39 324.285 304.416 320.949 309.185 319.184Z"/><path fill="#F5F5D4" d="M314.329 327.777C321.176 326.303 327.925 330.643 329.423 337.484C330.922 344.325 326.605 351.09 319.769 352.613C312.899 354.143 306.093 349.8 304.587 342.925C303.081 336.049 307.448 329.259 314.329 327.777Z"/><path fill="#F77A20" d="M428.365 305.757C435.237 305.003 440.355 305.266 446.203 309.79C450.948 313.457 454.043 318.858 454.806 324.806C455.519 330.836 453.782 336.9 449.984 341.638C448.871 343.053 447.788 344.143 446.496 345.38C441.027 348.64 438.419 349.732 431.752 350.119C427.759 349.747 424.383 348.706 420.985 346.533C415.741 343.214 412.118 337.859 410.987 331.757C409.743 324.808 411.574 319.693 415.398 314.102C420.277 309.263 422.012 308.2 428.365 305.757Z"/><path fill="#F5F5D4" d="M430.957 315.275C437.836 314.28 444.229 319.024 445.27 325.896C446.311 332.768 441.61 339.193 434.745 340.279C427.814 341.377 421.316 336.621 420.265 329.684C419.214 322.747 424.012 316.28 430.957 315.275Z"/><path fill="#DDB78B" d="M253.959 263.242C271.111 280.403 293.333 301.457 309.185 319.184C304.416 320.949 300.39 324.285 297.77 328.644C289.393 319.435 280.223 310.502 271.452 301.627C262.55 292.619 253.522 282.438 244.161 273.995C246.206 271.073 251.297 265.944 253.959 263.242Z"/><path fill="#DDB78B" d="M405.095 259.408L418.937 287.609C420.247 290.347 426.561 304.776 428.365 305.757C422.012 308.2 420.277 309.263 415.398 314.102C409.92 304.468 404.657 290.812 399.539 280.742C397.168 276.078 395.477 271.166 392.486 266.757C398.981 263.983 399.588 264.349 405.095 259.408Z"/><path fill="#DDB78B" d="M353.591 190.674C355.842 188.693 364.52 185.219 367.411 184.099C369.378 188.878 382.68 220.917 385.034 222.122C385.131 222.171 385.242 222.187 385.347 222.219C379.275 224.023 376.429 224.99 371.598 229.342C368.507 223.563 357.26 193.941 353.591 190.674Z"/><path fill="#DDB78B" d="M431.752 350.119C438.419 349.732 441.027 348.64 446.496 345.38C451.286 354.772 456.744 365.182 460.962 374.79C456.328 376.517 451.784 378.478 447.348 380.666C443.253 372.787 437.643 359.161 433.103 350.804C432.652 350.576 432.202 350.347 431.752 350.119Z"/><path fill="#F5F5D4" d="M436.095 162.108C438.11 164.863 442.458 174.999 444.062 178.522L459.13 211.762C473.101 242.85 487.253 273.856 501.584 304.779C508.531 319.814 517.112 339.376 524.692 353.889C566.471 357.047 605.331 376.514 632.877 408.085C656.276 435.179 669.924 469.331 671.641 505.089C666.751 505.262 663.008 505.198 658.113 504.98C655.926 458.329 631.59 415.527 592.618 389.791C553.645 364.055 504.725 358.481 460.962 374.79C456.744 365.182 451.286 354.772 446.496 345.38C447.788 344.143 448.871 343.053 449.984 341.638C453.782 336.9 455.519 330.836 454.806 324.806C454.043 318.858 450.948 313.457 446.203 309.79C440.355 305.266 435.237 305.003 428.365 305.757C426.561 304.776 420.247 290.347 418.937 287.609L405.095 259.408C418.962 242.895 407.316 220.369 385.347 222.219C385.242 222.187 385.131 222.171 385.034 222.122C382.68 220.917 369.378 188.878 367.411 184.099C390.63 174.064 411.623 167.707 436.095 162.108Z"/><path fill="#F5F5D4" d="M647.824 180.332C652.235 181.393 658.014 184.454 662.053 186.551C693.133 201.129 722.074 219.888 748.073 242.306C725.148 265.841 701.587 288.753 678.824 312.348C674.483 308.924 657.467 291.583 653.152 287.012C643.557 276.846 628.713 263.837 619.843 253.659C625.81 244.692 626.23 237.139 621.14 227.648C620.837 227.424 618.617 224.95 618.071 224.424C615.272 221.731 613.144 220.515 609.749 218.735C613.621 216.669 643.713 185.097 647.824 180.332Z"/><path fill="#DDB78B" d="M647.824 180.332C652.235 181.393 658.014 184.454 662.053 186.551C653.635 194.546 645.163 203.413 636.937 211.687C632.416 216.235 625.027 223.138 621.14 227.648C620.837 227.424 618.617 224.95 618.071 224.424C615.272 221.731 613.144 220.515 609.749 218.735C613.621 216.669 643.713 185.097 647.824 180.332Z"/><path fill="#F5F5D4" d="M678.638 332.839C682.905 337.127 687.106 341.479 691.242 345.894C688.479 359.565 694.447 370.151 708.01 374.026L707.967 414.035C700.498 416.151 694.695 422.042 692.691 429.541C682.828 429.68 672.964 429.722 663.101 429.667C653.31 410.308 643.14 398.732 627.701 384.029C644.487 367.31 662.334 350 678.638 332.839Z"/><path fill="#F5F5D4" d="M670.554 443.368C676.172 443.5 688.304 443.996 693.532 443.438C696.081 449.782 701.431 454.583 708.012 456.432L707.933 505.012C700.223 505.197 692.512 505.333 684.801 505.418C683.805 481.885 679.556 464.94 670.554 443.368Z"/><path fill="#F77A20" d="M460.962 374.79C504.725 358.481 553.645 364.055 592.618 389.791C631.59 415.527 655.926 458.329 658.113 504.98C658.338 509.782 658.326 514.592 658.077 519.393C657.59 528.787 656.198 538.113 653.921 547.239C652.689 552.175 651.2 557.043 649.461 561.823C645.357 573.105 639.879 583.838 633.152 593.781C630.429 597.804 627.508 601.69 624.399 605.422C610.923 621.602 594.111 634.68 575.114 643.763C570.529 645.956 565.833 647.908 561.044 649.611C517.46 665.115 469.11 659.084 430.671 633.348C392.231 607.612 368.234 565.207 365.964 519.003C365.734 514.321 365.729 509.631 365.949 504.948C366.431 494.72 367.985 484.571 370.587 474.668C371.887 469.719 373.446 464.842 375.258 460.056C379.754 448.177 385.778 436.935 393.179 426.613C396.073 422.577 399.17 418.691 402.459 414.971C415.05 400.727 430.297 389.074 447.348 380.666C451.784 378.478 456.328 376.517 460.962 374.79Z"/><path fill="#F5F5D4" d="M244.161 273.995C253.522 282.438 262.55 292.619 271.452 301.627C280.223 310.502 289.393 319.435 297.77 328.644C293.352 335.994 293.521 345.222 298.205 352.406C301.098 356.842 305.471 360.109 310.545 361.626C315.975 363.249 321.818 362.752 326.896 360.236C331.507 357.951 335.191 354.147 337.326 349.464C341.706 354.716 347.446 360.246 352.445 365.01C369.44 381.206 385.389 398.927 402.459 414.971C399.17 418.691 396.073 422.577 393.179 426.613C385.778 436.935 379.754 448.177 375.258 460.056C373.446 464.842 371.887 469.719 370.587 474.668C367.985 484.571 366.431 494.72 365.949 504.948C348.486 505.622 327.508 505.074 309.696 505.063C287.706 505.05 264.304 505.626 242.523 505.162C243.848 509.844 243.621 514.83 241.876 519.373C238.461 528.263 229.825 534.045 220.305 533.816C210.784 533.586 202.437 527.395 199.454 518.35C198.032 514.039 197.947 509.399 199.208 505.038C184.445 505.177 169.682 505.153 154.92 504.966C155.03 502.365 154.971 499.869 154.929 497.272C155.225 459.305 166.262 415.682 179.115 380.174C180.841 375.11 182.937 369.824 185.474 365.111C199.977 331.978 220.902 301.519 244.161 273.995Z"/><path fill="#F5F5D4" d="M244.161 273.995C253.522 282.438 262.55 292.619 271.452 301.627C280.223 310.502 289.393 319.435 297.77 328.644C293.352 335.994 293.521 345.222 298.205 352.406C301.098 356.842 305.471 360.109 310.545 361.626C306.23 364.962 299.584 372.145 295.596 376.212C287.61 384.312 279.583 392.371 271.514 400.388C267.962 403.936 261.915 410.34 258.295 413.446C253.446 409.284 252.039 408.514 246.058 406.206C239.361 405.091 234.743 405.637 228.769 409.351C224.005 413.34 222.46 415.256 219.784 421.144C215.241 415.609 210.047 411.202 205.048 406.18C196.537 397.629 187.271 389.016 179.115 380.174C180.841 375.11 182.937 369.824 185.474 365.111C199.977 331.978 220.902 301.519 244.161 273.995Z"/><path fill="#DDB78B" d="M298.205 352.406C301.098 356.842 305.471 360.109 310.545 361.626C306.23 364.962 299.584 372.145 295.596 376.212C287.61 384.312 279.583 392.371 271.514 400.388C267.962 403.936 261.915 410.34 258.295 413.446C253.446 409.284 252.039 408.514 246.058 406.206C263.192 388.034 280.576 370.099 298.205 352.406Z"/><path fill="#DDB78B" d="M179.115 380.174C180.841 375.11 182.937 369.824 185.474 365.111C187.689 368.551 203.563 384.18 207.743 388.208C213.808 394.053 222.869 404.011 228.769 409.351C224.005 413.34 222.46 415.256 219.784 421.144C215.241 415.609 210.047 411.202 205.048 406.18C196.537 397.629 187.271 389.016 179.115 380.174Z"/><path fill="#F5F5D4" d="M337.326 349.464C341.706 354.716 347.446 360.246 352.445 365.01C369.44 381.206 385.389 398.927 402.459 414.971C399.17 418.691 396.073 422.577 393.179 426.613C385.778 436.935 379.754 448.177 375.258 460.056C372.109 457.974 356.879 443.125 353.783 439.93C351.832 444.285 348.544 447.905 344.396 450.265C338.577 453.576 331.586 454.117 325.327 451.743C319.068 449.368 314.195 444.325 312.037 437.988C310.554 433.632 310.444 428.925 311.724 424.505C298.765 424.858 276.202 424.778 263.501 423.948C262.131 419.133 261.27 417.468 258.295 413.446C261.915 410.34 267.962 403.936 271.514 400.388C279.583 392.371 287.61 384.312 295.596 376.212C299.584 372.145 306.23 364.962 310.545 361.626C315.975 363.249 321.818 362.752 326.896 360.236C331.507 357.951 335.191 354.147 337.326 349.464Z"/><path fill="#F77A20" d="M311.724 424.505C314.059 416.441 320.698 410.352 328.934 408.723C337.17 407.093 345.627 410.195 350.857 416.763C356.087 423.331 357.216 432.268 353.783 439.93C351.832 444.285 348.544 447.905 344.396 450.265C338.577 453.576 331.586 454.117 325.327 451.743C319.068 449.368 314.195 444.325 312.037 437.988C310.554 433.632 310.444 428.925 311.724 424.505Z"/><path fill="#F5F5D4" d="M330.748 418.281C337.614 416.864 344.344 421.23 345.849 428.078C347.353 434.926 343.073 441.711 336.245 443.303C331.75 444.35 327.039 442.899 323.912 439.503C320.786 436.108 319.728 431.293 321.143 426.9C322.558 422.506 326.227 419.214 330.748 418.281Z"/><path fill="#DDB78B" d="M337.326 349.464C341.706 354.716 347.446 360.246 352.445 365.01C369.44 381.206 385.389 398.927 402.459 414.971C399.17 418.691 396.073 422.577 393.179 426.613C383.609 415.832 368.322 401.924 357.858 391.226C349.173 382.347 335.709 368.027 326.896 360.236C331.507 357.951 335.191 354.147 337.326 349.464Z"/><path fill="#F77A20" d="M228.769 409.351C234.743 405.637 239.361 405.091 246.058 406.206C252.039 408.514 253.446 409.284 258.295 413.446C261.27 417.468 262.131 419.133 263.501 423.948C263.659 430.248 263.726 431.63 261.696 437.606C260.098 441.621 256.423 445.576 252.723 447.767C247.251 450.996 240.69 451.827 234.585 450.065C228.853 448.378 224.026 444.482 221.168 439.234C217.983 433.281 217.936 427.472 219.784 421.144C222.46 415.256 224.005 413.34 228.769 409.351Z"/><path fill="#F5F5D4" d="M238.005 415.854C244.896 414.061 251.928 418.227 253.666 425.132C255.404 432.037 251.183 439.036 244.265 440.719C237.423 442.385 230.518 438.22 228.799 431.392C227.08 424.563 231.19 417.626 238.005 415.854Z"/><path fill="#F77A20" d="M199.208 505.038C202.001 495.379 210.857 488.741 220.912 488.769C230.967 488.798 239.785 495.487 242.523 505.162C243.848 509.844 243.621 514.83 241.876 519.373C238.461 528.263 229.825 534.045 220.305 533.816C210.784 533.586 202.437 527.395 199.454 518.35C198.032 514.039 197.947 509.399 199.208 505.038Z"/><path fill="#F5F5D4" d="M219.794 498.755C226.744 498.125 232.898 503.223 233.574 510.168C234.249 517.113 229.191 523.301 222.251 524.021C215.246 524.749 208.988 519.634 208.306 512.625C207.625 505.615 212.78 499.39 219.794 498.755Z"/><path fill="#DDB78B" d="M263.501 423.948C276.202 424.778 298.765 424.858 311.724 424.505C310.444 428.925 310.554 433.632 312.037 437.988C297.269 437.206 277.199 437.944 261.696 437.606C263.726 431.63 263.659 430.248 263.501 423.948Z"/><path fill="#DDB78B" d="M353.783 439.93C356.879 443.125 372.109 457.974 375.258 460.056C373.446 464.842 371.887 469.719 370.587 474.668C361.79 466.606 353.059 458.471 344.396 450.265C348.544 447.905 351.832 444.285 353.783 439.93Z"/><path fill="#F5F5D4" d="M361.763 700.848L410.853 651.405C437.73 669.088 457.548 676.627 488.973 681.974C495.387 698.367 504.967 717.958 512.337 734.095L554.17 825.936C558.112 834.613 562.128 843.255 566.22 851.861C567.181 853.908 571.583 863.095 571.998 864.866C532.071 870.564 508.492 871.699 468.008 867.152C462.925 866.825 454.981 865.391 450.072 864.322C420.336 858.889 398.622 852.678 370.516 840.949C372.645 836.865 403.774 807.355 408.641 802.163C404.151 799.972 400.505 796.366 398.265 791.9C394.085 783.562 395.41 773.517 401.61 766.549C405.21 762.503 410.134 759.871 415.498 759.127C415.105 758.998 414.712 758.869 414.319 758.74C410.268 752.626 406.256 745.891 401.852 740.156C390.338 725.163 375.046 713.942 361.763 700.848Z"/><path fill="#F5F5D4" d="M408.641 802.163C412.628 804.107 417.095 804.846 421.496 804.287C424.018 807.25 450.375 862.847 450.072 864.322C420.336 858.889 398.622 852.678 370.516 840.949C372.645 836.865 403.774 807.355 408.641 802.163Z"/><path fill="#F77A20" d="M446.616 746.375C441.578 736.14 444.819 723.759 454.224 717.305C463.63 710.85 476.348 712.279 484.086 720.66C491.825 729.041 492.237 741.832 485.054 750.694C477.871 759.556 465.271 761.8 455.47 755.964C451.653 753.692 448.577 750.361 446.616 746.375Z"/><path fill="#F5F5D4" d="M465.012 722.666C469.881 721.922 474.773 723.856 477.816 727.729C480.859 731.601 481.581 736.813 479.706 741.367C477.831 745.921 473.649 749.113 468.761 749.72C461.35 750.64 454.574 745.438 453.55 738.041C452.525 730.644 457.631 723.796 465.012 722.666Z"/><path fill="#F77A20" d="M415.498 759.127C420.679 758.409 425.949 759.495 430.423 762.203C434.22 764.501 437.262 767.858 439.177 771.861C443.278 780.435 441.624 790.654 435.029 797.497C431.424 801.238 426.649 803.633 421.496 804.287C417.095 804.846 412.628 804.107 408.641 802.163C404.151 799.972 400.505 796.366 398.265 791.9C394.085 783.562 395.41 773.517 401.61 766.549C405.21 762.503 410.134 759.871 415.498 759.127Z"/><path fill="#F5F5D4" d="M415.546 769.191C422.428 767.593 429.316 771.818 431.012 778.676C432.707 785.534 428.58 792.482 421.746 794.274C417.239 795.456 412.445 794.119 409.199 790.776C405.953 787.433 404.759 782.602 406.073 778.131C407.388 773.661 411.008 770.245 415.546 769.191Z"/><path fill="#DDB78B" d="M435.029 797.497C436.861 803.149 444.525 818.113 447.455 824.171C454.327 838.381 461.021 853.04 468.008 867.152C462.925 866.825 454.981 865.391 450.072 864.322C450.375 862.847 424.018 807.25 421.496 804.287C426.649 803.633 431.424 801.238 435.029 797.497Z"/><path fill="#DDB78B" d="M430.423 762.203L446.616 746.375C448.577 750.361 451.653 753.692 455.47 755.964C450.139 761.226 444.654 766.793 439.177 771.861C437.262 767.858 434.22 764.501 430.423 762.203Z"/><path fill="#F5F5D4" d="M624.399 605.422C638.857 619.523 653.166 633.775 667.324 648.176C673.625 654.494 682.153 663.361 688.679 669.168C692.146 663.951 694.097 662.717 699.336 659.841C704.358 657.592 709.966 657.826 715.157 659.297C722.782 662.982 721.181 663.233 726.683 668.048C731.236 676.675 731.66 682.954 727.16 691.822C729.939 695.747 742.457 707.702 746.698 711.911L782.102 747.323C779.298 750.985 775.655 755.238 772.336 758.425C750.244 780.619 729.652 798.579 702.695 815.138C692.409 821.456 682.698 826.382 672.621 832.291C669.02 834.285 661.67 838.072 657.764 839.36C653.923 831.875 650.355 825.13 646.793 817.438C644.609 812.723 639.851 802.535 637.057 798.692C628.396 799.299 620.191 794.742 616.127 787.069C612.063 779.396 612.905 770.049 618.273 763.225C621.24 759.454 625.361 756.759 630.005 755.553C628.041 754.554 609.996 715.84 607.659 710.92C607.988 710.568 608.312 710.211 608.631 709.848C612.6 705.388 614.589 699.508 614.142 693.554C613.608 687.51 610.677 681.931 606.003 678.061C600.706 673.663 595.462 672.667 588.871 673.228C587.26 672.419 576.854 647.703 575.114 643.763C594.111 634.68 610.923 621.602 624.399 605.422Z"/><path fill="#F77A20" d="M699.336 659.841C704.358 657.592 709.966 657.826 715.157 659.297C722.782 662.982 721.181 663.233 726.683 668.048C731.236 676.675 731.66 682.954 727.16 691.822C723.123 696.862 721.282 698.234 715.401 701.234C710.026 703.285 704.059 703.137 698.792 700.821C693.38 698.343 689.195 693.791 687.179 688.192C684.659 681.33 685.654 675.513 688.679 669.168C692.146 663.951 694.097 662.717 699.336 659.841Z"/><path fill="#F5F5D4" d="M705.168 668.231C711.905 666.767 718.564 671 720.097 677.722C721.63 684.443 717.464 691.146 710.759 692.747C706.36 693.797 701.736 692.404 698.649 689.099C695.563 685.794 694.489 681.085 695.837 676.769C697.186 672.452 700.749 669.192 705.168 668.231Z"/><path fill="#F77A20" d="M630.005 755.553C639.244 753.152 648.976 756.999 654.077 765.069C659.178 773.138 658.478 783.579 652.346 790.895C648.519 795.461 643 798.276 637.057 798.692C628.396 799.299 620.191 794.742 616.127 787.069C612.063 779.396 612.905 770.049 618.273 763.225C621.24 759.454 625.361 756.759 630.005 755.553Z"/><path fill="#F5F5D4" d="M632.944 764.793C639.409 763.212 645.934 767.166 647.524 773.63C649.114 780.093 645.168 786.623 638.706 788.222C632.233 789.823 625.688 785.869 624.095 779.393C622.502 772.917 626.466 766.377 632.944 764.793Z"/><path fill="#DDB78B" d="M715.401 701.234C721.282 698.234 723.123 696.862 727.16 691.822C729.939 695.747 742.457 707.702 746.698 711.911L782.102 747.323C779.298 750.985 775.655 755.238 772.336 758.425C766.726 751.852 754.696 740.506 748.202 734.1L715.401 701.234Z"/><path fill="#DDB78B" d="M637.057 798.692C643 798.276 648.519 795.461 652.346 790.895C652.861 794.413 669.664 827.567 672.621 832.291C669.02 834.285 661.67 838.072 657.764 839.36C653.923 831.875 650.355 825.13 646.793 817.438C644.609 812.723 639.851 802.535 637.057 798.692Z"/><path fill="#F5F5D4" d="M352.578 519.056L365.964 519.003C368.234 565.207 392.231 607.612 430.671 633.348C469.11 659.084 517.46 665.115 561.044 649.611C565.833 647.908 570.529 645.956 575.114 643.763C576.854 647.703 587.26 672.419 588.871 673.228C595.462 672.667 600.706 673.663 606.003 678.061C610.677 681.931 613.608 687.51 614.142 693.554C614.589 699.508 612.6 705.388 608.631 709.848C608.312 710.211 607.988 710.568 607.659 710.92C609.996 715.84 628.041 754.554 630.005 755.553C625.361 756.759 621.24 759.454 618.273 763.225C612.905 770.049 612.063 779.396 616.127 787.069C620.191 794.742 628.396 799.299 637.057 798.692C639.851 802.535 644.609 812.723 646.793 817.438C650.355 825.13 653.923 831.875 657.764 839.36C632.315 850.264 613.53 856.193 586.368 862.04C584.579 856.618 577.555 842.488 574.718 836.362L551.565 786.025L516.752 709.968C510.97 697.405 504.29 681.84 497.91 669.847C465.032 667.403 430.606 652.355 405.95 630.661C372.509 601.238 355.833 563.059 352.578 519.056Z"/><path fill="#F77A20" d="M588.871 673.228C595.462 672.667 600.706 673.663 606.003 678.061C610.677 681.931 613.608 687.51 614.142 693.554C614.589 699.508 612.6 705.388 608.631 709.848C608.312 710.211 607.988 710.568 607.659 710.92C602.86 714.596 600.277 715.769 594.161 717.321C588.261 717.819 582.407 715.944 577.896 712.11C573.185 708.147 570.328 702.409 570.003 696.262C569.699 689.31 572.227 684.373 576.698 679.369C581.05 676.098 583.655 674.794 588.871 673.228Z"/><path fill="#F5F5D4" d="M590.71 683.183C597.374 682.403 603.42 687.143 604.252 693.8C605.085 700.457 600.393 706.54 593.743 707.426C587.017 708.321 580.851 703.565 580.009 696.832C579.166 690.1 583.972 683.971 590.71 683.183Z"/><path fill="#DDB78B" d="M607.659 710.92C609.996 715.84 628.041 754.554 630.005 755.553C625.361 756.759 621.24 759.454 618.273 763.225C611.366 748.724 603.56 734.545 596.928 719.879C596.164 718.191 595.769 717.847 594.161 717.321C600.277 715.769 602.86 714.596 607.659 710.92Z"/><path fill="#DDB78B" d="M561.044 649.611C565.833 647.908 570.529 645.956 575.114 643.763C576.854 647.703 587.26 672.419 588.871 673.228C583.655 674.794 581.05 676.098 576.698 679.369C574.187 674.375 563.793 651.463 561.044 649.611Z"/><path fill="#F5F5D4" d="M269.87 595.993L289.961 596.05C292.111 603.063 297.533 608.595 304.501 610.885C308.886 612.327 313.608 612.39 318.03 611.066C318.048 623.785 318.209 636.801 318.054 649.495C326.619 651.725 333.034 658.838 334.372 667.586C335.628 675.794 332.188 684.014 325.463 688.883C329.582 691.736 336.389 698.665 340.447 702.338L292.056 750.759C284.851 758.006 275.704 768.019 268.406 774.665C235.332 743.766 213.51 712.963 192.505 673.11L247.923 617.66C254.488 611.17 263.25 601.687 269.87 595.993Z"/><path fill="#F77A20" d="M304.672 650.199C308.953 648.589 313.628 648.343 318.054 649.495C326.619 651.725 333.034 658.838 334.372 667.586C335.628 675.794 332.188 684.014 325.463 688.883C318.477 693.939 309.192 694.483 301.664 690.276C294.136 686.07 289.733 677.877 290.379 669.278C291.024 660.678 296.6 653.235 304.672 650.199Z"/><path fill="#F5F5D4" d="M310.468 658.225C317.395 657.043 323.97 661.698 325.156 668.624C326.342 675.551 321.69 682.128 314.764 683.318C307.833 684.509 301.249 679.853 300.062 672.921C298.875 665.989 303.535 659.408 310.468 658.225Z"/><path fill="#DDB78B" d="M304.501 610.885C308.886 612.327 313.608 612.39 318.03 611.066C318.048 623.785 318.209 636.801 318.054 649.495C313.628 648.343 308.953 648.589 304.672 650.199C304.544 637.095 304.487 623.99 304.501 610.885Z"/><path fill="#DDB78B" d="M155.951 547.379C153.916 540.058 153.846 505.179 154.929 497.272C154.971 499.869 155.03 502.365 154.92 504.966C169.682 505.153 184.445 505.177 199.208 505.038C197.947 509.399 198.032 514.039 199.454 518.35C202.437 527.395 210.784 533.586 220.305 533.816C229.825 534.045 238.461 528.263 241.876 519.373L303.994 519.171C304.171 535.305 303.983 551.943 304.462 567.989C297.755 570.208 292.472 575.437 290.185 582.121C288.644 586.624 288.566 591.5 289.961 596.05L269.87 595.993C263.25 601.687 254.488 611.17 247.923 617.66L192.505 673.11C190.092 668.918 188.108 664.366 186.083 659.963C182.289 650.111 178.445 641.615 174.798 631.356C165.148 604.227 158.819 576.03 155.951 547.379Z"/><path fill="#F5F5D4" d="M199.454 518.35C202.437 527.395 210.784 533.586 220.305 533.816C229.825 534.045 238.461 528.263 241.876 519.373L303.994 519.171C304.171 535.305 303.983 551.943 304.462 567.989C297.755 570.208 292.472 575.437 290.185 582.121L246.236 582.095C237.627 582.078 224.47 582.468 216.213 581.351C199.959 579.153 185.436 568.162 176.624 554.583C170.147 544.603 169.095 535.565 162.903 526.409C161.682 524.603 157.418 520.606 155.672 518.942C158.249 518.63 165.787 518.882 168.726 518.844C178.922 518.715 189.269 519.049 199.454 518.35Z"/><path fill="#F5F5D4" d="M155.951 547.379L156.23 547.799C159.372 552.614 161.767 558.403 164.891 563.182C174.496 577.877 192.44 591.298 209.762 594.856C221.601 597.287 237.748 595.858 250.24 596.029L186.083 659.963C182.289 650.111 178.445 641.615 174.798 631.356C165.148 604.227 158.819 576.03 155.951 547.379Z"/><path fill="#F5F5D4" d="M279.034 784.094C280.605 781.615 293.39 769.24 296.178 766.422C314.238 748.012 332.5 729.801 350.961 711.793C362.456 722.296 375.248 732.017 385.53 743.576C391.55 750.344 396.756 758.862 401.61 766.549C395.41 773.517 394.085 783.562 398.265 791.9C400.505 796.366 404.151 799.972 408.641 802.163C403.774 807.355 372.645 836.865 370.516 840.949C366.581 839.82 359.455 836.555 356.009 834.404C328.368 820.884 302.512 803.984 279.034 784.094Z"/><path fill="#DDB78B" d="M398.265 791.9C400.505 796.366 404.151 799.972 408.641 802.163C403.774 807.355 372.645 836.865 370.516 840.949C366.581 839.82 359.455 836.555 356.009 834.404C359.579 831.597 367.075 823.509 370.656 819.864L398.265 791.9Z"/><path fill="#F5F5D4" d="M333.024 596.43C342.483 596.362 351.941 596.224 361.398 596.016C371.479 615.332 383.889 628.415 399.697 642.797C384.157 659.114 367.132 675.453 350.967 691.267C345.544 685.907 340.156 680.513 334.803 675.083C334.911 673.31 335.27 669 334.372 667.586C333.034 658.838 326.619 651.725 318.054 649.495C318.209 636.801 318.048 623.785 318.03 611.066C325.126 608.941 330.729 603.472 333.024 596.43Z"/><path fill="#F77A20" d="M304.462 567.989C308.832 566.544 313.538 566.469 317.952 567.773C325.158 569.902 330.833 575.476 333.092 582.642C334.507 587.133 334.484 591.954 333.024 596.43C330.729 603.472 325.126 608.941 318.03 611.066C313.608 612.39 308.886 612.327 304.501 610.885C297.533 608.595 292.111 603.063 289.961 596.05C288.566 591.5 288.644 586.624 290.185 582.121C292.472 575.437 297.755 570.208 304.462 567.989Z"/><path fill="#F5F5D4" d="M309.223 576.768C316.16 575.465 322.854 579.988 324.234 586.91C325.615 593.832 321.168 600.576 314.261 602.035C309.724 602.992 305.022 601.438 301.95 597.964C298.878 594.491 297.91 589.635 299.415 585.248C300.92 580.862 304.666 577.623 309.223 576.768Z"/><path fill="#F5F5D4" d="M318.329 519.059C325.212 519.028 332.662 518.853 339.5 519.015C340.042 541.942 345.239 561.291 354.208 582.178C347.017 582.614 340.302 582.623 333.092 582.642C330.833 575.476 325.158 569.902 317.952 567.773C318.103 551.466 318.012 535.383 318.329 519.059Z"/></svg>
